<svg width="218" height="45" viewBox="0 0 218 45" fill="none" xmlns="http://www.w3.org/2000/svg">
<path d="M14.5 30.5V6.5C14.5 5.43913 14.9214 4.42172 15.6716 3.67157C16.4217 2.92143 17.4391 2.5 18.5 2.5H40.5M14.5 30.5C14.5 29.4391 14.9214 28.4217 15.6716 27.6716C16.4217 26.9214 17.4391 26.5 18.5 26.5H20.5M14.5 30.5C14.5 31.5609 14.9214 32.5783 15.6716 33.3284C16.4217 34.0786 17.4391 34.5 18.5 34.5H20.5M54.5 34.5H32.5C31.4391 34.5 30.4217 34.9214 29.6716 35.6716C28.9214 36.4217 28.5 37.4391 28.5 38.5M28.5 38.5C28.5 39.5609 28.9214 40.5783 29.6716 41.3284C30.4217 42.0786 31.4391 42.5 32.5 42.5H54.5V10.5H32.5C31.4391 10.5 30.4217 10.9214 29.6716 11.6716C28.9214 12.4217 28.5 13.4391 28.5 14.5V38.5Z" stroke="#6366F1" stroke-width="3" stroke-linecap="round" stroke-linejoin="round"/>
<path d="M85.11 22.2C86.33 22.46 87.31 23.07 88.05 24.03C88.79 24.97 89.16 26.05 89.16 27.27C89.16 29.03 88.54 30.43 87.3 31.47C86.08 32.49 84.37 33 82.17 33H72.36V11.94H81.84C83.98 11.94 85.65 12.43 86.85 13.41C88.07 14.39 88.68 15.72 88.68 17.4C88.68 18.64 88.35 19.67 87.69 20.49C87.05 21.31 86.19 21.88 85.11 22.2ZM77.49 20.46H80.85C81.69 20.46 82.33 20.28 82.77 19.92C83.23 19.54 83.46 18.99 83.46 18.27C83.46 17.55 83.23 17 82.77 16.62C82.33 16.24 81.69 16.05 80.85 16.05H77.49V20.46ZM81.27 28.86C82.13 28.86 82.79 28.67 83.25 28.29C83.73 27.89 83.97 27.32 83.97 26.58C83.97 25.84 83.72 25.26 83.22 24.84C82.74 24.42 82.07 24.21 81.21 24.21H77.49V28.86H81.27ZM94.7154 14.52C93.8154 14.52 93.0754 14.26 92.4954 13.74C91.9354 13.2 91.6554 12.54 91.6554 11.76C91.6554 10.96 91.9354 10.3 92.4954 9.78C93.0754 9.24 93.8154 8.97 94.7154 8.97C95.5954 8.97 96.3154 9.24 96.8754 9.78C97.4554 10.3 97.7454 10.96 97.7454 11.76C97.7454 12.54 97.4554 13.2 96.8754 13.74C96.3154 14.26 95.5954 14.52 94.7154 14.52ZM97.2654 16.26V33H92.1354V16.26H97.2654ZM106.113 10.8V33H100.983V10.8H106.113ZM114.961 10.8V33H109.831V10.8H114.961ZM134.458 24.36C134.458 24.84 134.428 25.34 134.368 25.86H122.758C122.838 26.9 123.168 27.7 123.748 28.26C124.348 28.8 125.078 29.07 125.938 29.07C127.218 29.07 128.108 28.53 128.608 27.45H134.068C133.788 28.55 133.278 29.54 132.538 30.42C131.818 31.3 130.908 31.99 129.808 32.49C128.708 32.99 127.478 33.24 126.118 33.24C124.478 33.24 123.018 32.89 121.738 32.19C120.458 31.49 119.458 30.49 118.738 29.19C118.018 27.89 117.658 26.37 117.658 24.63C117.658 22.89 118.008 21.37 118.708 20.07C119.428 18.77 120.428 17.77 121.708 17.07C122.988 16.37 124.458 16.02 126.118 16.02C127.738 16.02 129.178 16.36 130.438 17.04C131.698 17.72 132.678 18.69 133.378 19.95C134.098 21.21 134.458 22.68 134.458 24.36ZM129.208 23.01C129.208 22.13 128.908 21.43 128.308 20.91C127.708 20.39 126.958 20.13 126.058 20.13C125.198 20.13 124.468 20.38 123.868 20.88C123.288 21.38 122.928 22.09 122.788 23.01H129.208ZM142.295 19.05C142.895 18.13 143.645 17.41 144.545 16.89C145.445 16.35 146.445 16.08 147.545 16.08V21.51H146.135C144.855 21.51 143.895 21.79 143.255 22.35C142.615 22.89 142.295 23.85 142.295 25.23V33H137.165V16.26H142.295V19.05ZM152.577 14.52C151.677 14.52 150.937 14.26 150.357 13.74C149.797 13.2 149.517 12.54 149.517 11.76C149.517 10.96 149.797 10.3 150.357 9.78C150.937 9.24 151.677 8.97 152.577 8.97C153.457 8.97 154.177 9.24 154.737 9.78C155.317 10.3 155.607 10.96 155.607 11.76C155.607 12.54 155.317 13.2 154.737 13.74C154.177 14.26 153.457 14.52 152.577 14.52ZM155.127 16.26V33H149.997V16.26H155.127ZM163.644 28.77H170.904V33H157.914V28.92L164.874 20.49H157.974V16.26H170.754V20.34L163.644 28.77ZM189.507 24.36C189.507 24.84 189.477 25.34 189.417 25.86H177.807C177.887 26.9 178.217 27.7 178.797 28.26C179.397 28.8 180.127 29.07 180.987 29.07C182.267 29.07 183.157 28.53 183.657 27.45H189.117C188.837 28.55 188.327 29.54 187.587 30.42C186.867 31.3 185.957 31.99 184.857 32.49C183.757 32.99 182.527 33.24 181.167 33.24C179.527 33.24 178.067 32.89 176.787 32.19C175.507 31.49 174.507 30.49 173.787 29.19C173.067 27.89 172.707 26.37 172.707 24.63C172.707 22.89 173.057 21.37 173.757 20.07C174.477 18.77 175.477 17.77 176.757 17.07C178.037 16.37 179.507 16.02 181.167 16.02C182.787 16.02 184.227 16.36 185.487 17.04C186.747 17.72 187.727 18.69 188.427 19.95C189.147 21.21 189.507 22.68 189.507 24.36ZM184.257 23.01C184.257 22.13 183.957 21.43 183.357 20.91C182.757 20.39 182.007 20.13 181.107 20.13C180.247 20.13 179.517 20.38 178.917 20.88C178.337 21.38 177.977 22.09 177.837 23.01H184.257ZM197.344 19.05C197.944 18.13 198.694 17.41 199.594 16.89C200.494 16.35 201.494 16.08 202.594 16.08V21.51H201.184C199.904 21.51 198.944 21.79 198.304 22.35C197.664 22.89 197.344 23.85 197.344 25.23V33H192.214V16.26H197.344V19.05Z" fill="white"/>
</svg>
